<svg width="24" height="25" viewBox="0 0 24 25" fill="none" xmlns="http://www.w3.org/2000/svg">
<path d="M4.616 20.5C4.15533 20.5 3.771 20.346 3.463 20.038C3.155 19.73 3.00067 19.3453 3 18.884V9.116C3 8.65534 3.15433 8.271 3.463 7.963C3.77167 7.655 4.15567 7.50067 4.615 7.5H9V6.115C9 5.655 9.15433 5.27067 9.463 4.962C9.77167 4.65334 10.156 4.49934 10.616 4.5H13.385C13.845 4.5 14.2293 4.654 14.538 4.962C14.8467 5.27 15.0007 5.65434 15 6.115V7.5H19.385C19.845 7.5 20.229 7.65434 20.537 7.963C20.845 8.27167 20.9993 8.656 21 9.116V18.885C21 19.345 20.8457 19.7293 20.537 20.038C20.2283 20.3467 19.8443 20.5007 19.385 20.5H4.616ZM10 7.5H14V6.115C14 5.96167 13.936 5.82067 13.808 5.692C13.68 5.56334 13.539 5.49934 13.385 5.5H10.615C10.4617 5.5 10.3207 5.564 10.192 5.692C10.0633 5.82 9.99933 5.961 10 6.115V7.5ZM20 15H14V16.5H10V15H4V18.885C4 19.0383 4.064 19.1793 4.192 19.308C4.32 19.4367 4.461 19.5007 4.615 19.5H19.385C19.5383 19.5 19.6793 19.436 19.808 19.308C19.9367 19.18 20.0007 19.0387 20 18.884V15ZM11 15.5H13V13.5H11V15.5ZM4 14H10V12.5H14V14H20V9.116C20 8.962 19.936 8.82067 19.808 8.692C19.68 8.56334 19.539 8.49934 19.385 8.5H4.615C4.46167 8.5 4.32067 8.564 4.192 8.692C4.06333 8.82 3.99933 8.96134 4 9.116V14Z" fill="#E4B56E"/>
</svg>
