<svg width="32" height="32" viewBox="0 0 32 32" fill="none" xmlns="http://www.w3.org/2000/svg">
<path d="M14.152 4.66603C14.2369 4.57907 14.3384 4.51001 14.4505 4.46292C14.5625 4.41583 14.6829 4.39166 14.8044 4.39185C14.926 4.39203 15.0463 4.41657 15.1582 4.464C15.2701 4.51144 15.3714 4.58081 15.456 4.66803L25.82 15.302C26.002 15.4888 26.1039 15.7392 26.1039 16C26.1039 16.2608 26.002 16.5113 25.82 16.698L15.456 27.332C15.3712 27.4191 15.2698 27.4883 15.1579 27.5356C15.0459 27.5829 14.9256 27.6072 14.804 27.6072C14.6825 27.6072 14.5621 27.5829 14.4502 27.5356C14.3382 27.4883 14.2368 27.4191 14.152 27.332C13.9776 27.1534 13.8799 26.9137 13.8799 26.664C13.8799 26.4144 13.9776 26.1746 14.152 25.996L23.898 16L14.152 6.00003C13.9782 5.82153 13.8809 5.5822 13.8809 5.33303C13.8809 5.08385 13.9782 4.84452 14.152 4.66603ZM6.15201 4.66603C6.23694 4.57907 6.33842 4.51001 6.45048 4.46292C6.56253 4.41583 6.68289 4.39166 6.80443 4.39185C6.92598 4.39203 7.04626 4.41657 7.15817 4.464C7.27008 4.51144 7.37135 4.58081 7.45601 4.66803L17.82 15.302C18.002 15.4888 18.1039 15.7392 18.1039 16C18.1039 16.2608 18.002 16.5113 17.82 16.698L7.45601 27.332C7.37122 27.4191 7.26984 27.4883 7.15786 27.5356C7.04588 27.5829 6.92556 27.6072 6.80401 27.6072C6.68247 27.6072 6.56215 27.5829 6.45017 27.5356C6.33818 27.4883 6.2368 27.4191 6.15201 27.332C5.97755 27.1534 5.87988 26.9137 5.87988 26.664C5.87988 26.4144 5.97755 26.1746 6.15201 25.996L15.898 16L6.15201 6.00003C5.97815 5.82153 5.88086 5.5822 5.88086 5.33303C5.88086 5.08385 5.97815 4.84452 6.15201 4.66603Z" fill="#D2830D"/>
</svg>
