<svg width="24" height="25" viewBox="0 0 24 25" fill="none" xmlns="http://www.w3.org/2000/svg">
<path d="M4.616 19.5C4.15533 19.5 3.771 19.346 3.463 19.038C3.155 18.73 3.00067 18.3453 3 17.884V7.116C3 6.65533 3.15433 6.271 3.463 5.963C3.77167 5.655 4.15567 5.50067 4.615 5.5H19.385C19.845 5.5 20.229 5.65433 20.537 5.963C20.845 6.27167 20.9993 6.656 21 7.116V17.885C21 18.345 20.8457 18.7293 20.537 19.038C20.2283 19.3467 19.8443 19.5007 19.385 19.5H4.616ZM12 12.616L4 7.385V17.885C4 18.0643 4.05767 18.2117 4.173 18.327C4.28833 18.4423 4.436 18.5 4.616 18.5H19.385C19.5643 18.5 19.7117 18.4423 19.827 18.327C19.9423 18.2117 20 18.064 20 17.884V7.384L12 12.616ZM12 11.5L19.692 6.5H4.308L12 11.5ZM4 7.385V6.5V17.885C4 18.0643 4.05767 18.2117 4.173 18.327C4.28833 18.4423 4.436 18.5 4.616 18.5H4V7.385Z" fill="#E4B56E"/>
</svg>
