<svg width="64" height="64" viewBox="0 0 64 64" fill="none" xmlns="http://www.w3.org/2000/svg">
<rect width="64" height="64" rx="32" fill="#507279"/>
<path d="M41.2383 48H22.5273V45.2852L30.1641 37.5312C31.5833 36.099 32.7747 34.8229 33.7383 33.7031C34.7148 32.5833 35.457 31.4831 35.9648 30.4023C36.4727 29.3086 36.7266 28.1107 36.7266 26.8086C36.7266 25.194 36.2448 23.9635 35.2812 23.1172C34.3307 22.2578 33.0742 21.8281 31.5117 21.8281C30.1445 21.8281 28.9336 22.0625 27.8789 22.5312C26.8242 23 25.7435 23.6641 24.6367 24.5234L22.8984 22.3359C23.6536 21.6979 24.474 21.1315 25.3594 20.6367C26.2578 20.1419 27.2148 19.7513 28.2305 19.4648C29.2591 19.1784 30.3529 19.0352 31.5117 19.0352C33.2695 19.0352 34.7865 19.3411 36.0625 19.9531C37.3385 20.5651 38.3216 21.4375 39.0117 22.5703C39.7148 23.7031 40.0664 25.0508 40.0664 26.6133C40.0664 28.1237 39.7669 29.5299 39.168 30.832C38.569 32.1211 37.7292 33.4036 36.6484 34.6797C35.5677 35.9427 34.3047 37.2839 32.8594 38.7031L26.6484 44.8945V45.0312H41.2383V48Z" fill="#FAF3E7"/>
</svg>
