<svg width="64" height="64" viewBox="0 0 64 64" fill="none" xmlns="http://www.w3.org/2000/svg">
<rect width="64" height="64" rx="32" fill="#507279"/>
<path d="M40.1836 26.1055C40.1836 27.3815 39.9362 28.4883 39.4414 29.4258C38.9466 30.3633 38.2565 31.1315 37.3711 31.7305C36.4857 32.3164 35.444 32.7266 34.2461 32.9609V33.1172C36.5117 33.4036 38.2109 34.1328 39.3438 35.3047C40.4896 36.4766 41.0625 38.013 41.0625 39.9141C41.0625 41.5677 40.6719 43.0326 39.8906 44.3086C39.1224 45.5846 37.9375 46.5872 36.3359 47.3164C34.7474 48.0326 32.7096 48.3906 30.2227 48.3906C28.7122 48.3906 27.3125 48.2669 26.0234 48.0195C24.7474 47.7852 23.5234 47.388 22.3516 46.8281V43.7812C23.5365 44.3672 24.8255 44.8294 26.2188 45.168C27.612 45.4935 28.9596 45.6562 30.2617 45.6562C32.8659 45.6562 34.7474 45.1419 35.9062 44.1133C37.0651 43.0716 37.6445 41.6523 37.6445 39.8555C37.6445 38.6185 37.319 37.6224 36.668 36.8672C36.0299 36.099 35.1055 35.5391 33.8945 35.1875C32.6966 34.8229 31.2513 34.6406 29.5586 34.6406H26.707V31.8672H29.5781C31.1276 31.8672 32.4427 31.6393 33.5234 31.1836C34.6042 30.7279 35.4245 30.0898 35.9844 29.2695C36.5573 28.4362 36.8438 27.4531 36.8438 26.3203C36.8438 24.875 36.362 23.7617 35.3984 22.9805C34.4349 22.1862 33.1263 21.7891 31.4727 21.7891C30.457 21.7891 29.5326 21.8932 28.6992 22.1016C27.8659 22.3099 27.0846 22.5964 26.3555 22.9609C25.6263 23.3255 24.8971 23.7487 24.168 24.2305L22.5273 22.0039C23.569 21.1966 24.8385 20.5 26.3359 19.9141C27.8333 19.3281 29.5326 19.0352 31.4336 19.0352C34.3503 19.0352 36.5378 19.6992 37.9961 21.0273C39.4544 22.3555 40.1836 24.0482 40.1836 26.1055Z" fill="#FAF3E7"/>
</svg>
