<svg width="64" height="64" viewBox="0 0 64 64" fill="none" xmlns="http://www.w3.org/2000/svg">
<rect width="64" height="64" rx="32" fill="#507279"/>
<path d="M42.6641 41.3789H38.3867V48H35.2227V41.3789H21.4141V38.6445L35.0078 19.2891H38.3867V38.4492H42.6641V41.3789ZM35.2227 38.4492V29.1133C35.2227 28.3971 35.2292 27.7526 35.2422 27.1797C35.2552 26.5938 35.2747 26.0534 35.3008 25.5586C35.3268 25.0508 35.3464 24.569 35.3594 24.1133C35.3854 23.6576 35.4049 23.2083 35.418 22.7656H35.2617C35.0143 23.2865 34.7279 23.8398 34.4023 24.4258C34.0898 24.9987 33.7708 25.513 33.4453 25.9688L24.6367 38.4492H35.2227Z" fill="#FAF3E7"/>
</svg>
