<svg width="24" height="25" viewBox="0 0 24 25" fill="none" xmlns="http://www.w3.org/2000/svg">
<path d="M20.7741 15.5282L16.3453 13.5435C16.1447 13.4575 15.9257 13.4229 15.7083 13.4429C15.4909 13.4629 15.282 13.5368 15.1003 13.6579C15.0819 13.6697 15.0644 13.6829 15.0478 13.6972L12.7331 15.666C12.7091 15.6791 12.6824 15.6864 12.655 15.6874C12.6277 15.6884 12.6005 15.683 12.5756 15.6716C11.0878 14.9535 9.54657 13.4216 8.82564 11.9544C8.81363 11.9299 8.80739 11.903 8.80739 11.8757C8.80739 11.8484 8.81363 11.8214 8.82564 11.7969L10.8009 9.45318C10.8151 9.43585 10.8283 9.4177 10.8403 9.3988C10.9598 9.21646 11.0319 9.00725 11.0502 8.79006C11.0685 8.57286 11.0325 8.35452 10.9453 8.15474L8.9747 3.73349C8.86279 3.4725 8.66925 3.25484 8.42313 3.11319C8.17701 2.97154 7.89159 2.91353 7.6097 2.94787C6.3846 3.10893 5.26006 3.71056 4.44622 4.64034C3.63238 5.57011 3.18494 6.76441 3.18751 8.00005C3.18751 15.3407 9.15939 21.3126 16.5 21.3126C17.7356 21.3149 18.9298 20.8674 19.8595 20.0536C20.7893 19.2398 21.3909 18.1154 21.5522 16.8904C21.5865 16.6098 21.5292 16.3257 21.389 16.0802C21.2488 15.8348 21.0332 15.6412 20.7741 15.5282ZM16.5 20.1876C9.78001 20.1876 4.31251 14.7201 4.31251 8.00005C4.30938 7.03811 4.65658 6.10793 5.28924 5.38331C5.9219 4.65869 6.79675 4.1892 7.75032 4.06255H7.77189C7.80967 4.06326 7.84635 4.07536 7.87713 4.09728C7.90791 4.11919 7.93136 4.1499 7.94439 4.18537L9.92251 8.60193C9.93379 8.62648 9.93963 8.65319 9.93963 8.68021C9.93963 8.70723 9.93379 8.73394 9.92251 8.75849L7.94345 11.1079C7.92876 11.1247 7.91528 11.1426 7.90314 11.1613C7.7793 11.3504 7.70637 11.5682 7.69143 11.7937C7.67648 12.0192 7.72002 12.2447 7.81782 12.4485C8.64939 14.151 10.365 15.8535 12.0863 16.6851C12.2912 16.7823 12.5178 16.8248 12.7441 16.8084C12.9703 16.7919 13.1885 16.7172 13.3772 16.5913C13.395 16.5791 13.4128 16.566 13.4297 16.5519L15.7434 14.5832C15.7663 14.5709 15.7915 14.5637 15.8174 14.5621C15.8433 14.5605 15.8692 14.5645 15.8934 14.5738L20.3231 16.5585C20.3593 16.5739 20.3897 16.6003 20.4101 16.6339C20.4305 16.6676 20.4397 16.7068 20.4366 16.746C20.3106 17.7 19.8415 18.5755 19.1171 19.2089C18.3926 19.8422 17.4623 20.1901 16.5 20.1876Z" fill="#E4B56E"/>
</svg>
